<svg viewBox="0 0 35 33" width="30" height="30" fill="none" xmlns="http://www.w3.org/2000/svg">
  <path d="M32.9582 1l-13.1341 9.7183 2.4424-5.72731L32.9582 1z" fill="#E17726" stroke="#E17726" strokeWidth=".25" strokeLinecap="round" strokeLinejoin="round"/>
  <path d="M2.66296 1l13.01714 9.809-2.3254-5.81802L2.66296 1z" fill="#E27625" stroke="#E27625" strokeWidth=".25" strokeLinecap="round" strokeLinejoin="round"/>
  <path d="M28.2295 23.5335l-3.4947 5.3386 7.4829 2.0603 2.1436-7.2823-6.1318-.1166z" fill="#E27625" stroke="#E27625" strokeWidth=".25" strokeLinecap="round" strokeLinejoin="round"/>
  <path d="M1.27686 23.6501l2.13055 7.2823 7.46994-2.0603-3.48166-5.3386-6.11883.1166z" fill="#E27625" stroke="#E27625" strokeWidth=".25" strokeLinecap="round" strokeLinejoin="round"/>
  <path d="M10.4706 14.5149l-2.0786 3.1358 7.405.3369-.2469-7.969-5.0795 4.4963z" fill="#E27625" stroke="#E27625" strokeWidth=".25" strokeLinecap="round" strokeLinejoin="round"/>
  <path d="M25.1505 14.5149l-5.1575-4.58704-.1647 8.05914 7.4049-.3369-2.0827-3.1358z" fill="#E27625" stroke="#E27625" strokeWidth=".25" strokeLinecap="round" strokeLinejoin="round"/>
  <path d="M10.8733 28.8721l4.4819-2.1639-3.8583-3.0062-.6236 5.1701z" fill="#E27625" stroke="#E27625" strokeWidth=".25" strokeLinecap="round" strokeLinejoin="round"/>
  <path d="M20.2659 26.7082l4.4689 2.1639-.611-5.1701-3.8579 3.0062z" fill="#E27625" stroke="#E27625" strokeWidth=".25" strokeLinecap="round" strokeLinejoin="round"/>
</svg> 