<svg width="30" height="30" viewBox="0 0 128 128" fill="none" xmlns="http://www.w3.org/2000/svg">
  <rect width="128" height="128" rx="64" fill="#534BB1"/>
  <path d="M110.585 64.4283H101.121C101.121 41.1571 82.1375 22.2142 58.8663 22.2142C36.5662 22.2142 18.2225 39.6479 17.1522 61.3407C16.0188 84.5776 35.1447 104 58.3141 104H61.8C61.8 104 66.4224 104 69.2 100.5H58.8663C40.2225 100.5 25 85.2775 25 66.6336C25 48.4183 39.7235 33.6296 58.3141 33.6336C76.9089 33.6336 91.6777 48.4264 91.6777 66.9999V75.995C91.6777 94.2142 69.2 94.2142 69.2 75.995V57.8693C69.2 54.3375 66.4306 51.5 62.8663 51.5C59.302 51.5 56.5326 54.3375 56.5326 57.8693V84.9999C56.5326 84.9999 56.5326 104 36.5662 104C36.5662 104 19.9502 104.492 19.9502 87.2244C19.9502 87.2244 19.9502 79.0591 29.6236 74.0142C29.6236 74.0142 40.7175 68.9937 52.2174 74.8029C52.2174 82.4774 58.3141 84.9999 62.8663 84.9999C70.2297 84.9999 82.1375 81.9959 82.1375 66.9999V62.0714H69.2V66.9999C69.2 70.5316 66.4306 73.3692 62.8663 73.3692C59.302 73.3692 56.5326 70.5316 56.5326 66.9999C56.5326 63.4682 59.302 60.6306 62.8663 60.6306H101.121C106.154 60.6306 110.585 56.1815 110.585 50.5C110.585 48.7958 108.414 47.9887 107.261 49.2632C106.412 50.2101 105.106 50.761 103.718 50.5C101.121 50.0306 99.4272 47.6815 99.9794 45.1121C100.462 42.9019 102.532 41.4069 104.756 41.4069L106.194 41.4089C108.433 41.4069 110.585 43.0662 110.585 45.5C110.585 47.2091 110.585 48.6407 110.585 50.5C110.585 56.1815 106.154 60.6306 101.121 60.6306" fill="white"/>
</svg> 