<svg width="30" height="30" viewBox="0 0 80 80" fill="none" xmlns="http://www.w3.org/2000/svg">
  <path d="M77.4147 40.0045C77.4147 60.2469 61.1938 76.4776 40.9709 76.4776C20.7284 76.4776 4.51758 60.2566 4.51758 40.0045C4.51758 19.7621 20.7383 3.53125 40.9709 3.53125C61.1938 3.53125 77.4147 19.7621 77.4147 40.0045Z" fill="#3375BB"/>
  <path fill-rule="evenodd" clip-rule="evenodd" d="M41.0106 18.3799C50.5555 18.3799 58.3022 21.6419 58.3022 25.7248C58.3022 28.4166 58.3022 32.4499 58.3022 37.0255C58.3022 41.6012 58.3022 46.5886 58.3022 51.2333C58.3022 55.8781 50.5555 59.3932 41.0106 59.3932C31.4656 59.3932 23.719 55.877 23.719 51.2333C23.719 47.7281 23.719 42.9376 23.719 37.0255C23.719 30.3866 23.719 25.7839 23.719 25.7248C23.719 21.6419 31.4656 18.3799 41.0106 18.3799ZM41.0106 22.5217C33.8665 22.5217 27.8608 24.9261 27.8608 27.8925C27.8608 30.8588 33.8665 33.2632 41.0106 33.2632C48.1547 33.2632 54.1604 30.8588 54.1604 27.8925C54.1604 24.9261 48.1547 22.5217 41.0106 22.5217ZM52.0895 37.2224C49.0741 39.6664 45.1991 41.0618 41.0106 41.0618C36.8231 41.0618 32.9471 39.6664 29.9327 37.2224C28.8407 38.0978 28.2105 39.2294 28.2105 40.4399C28.2105 43.4063 33.875 45.8107 41.0192 45.8107C48.1633 45.8107 53.8278 43.4063 53.8278 40.4399C53.8278 39.2284 53.1976 38.0978 52.0895 37.2224ZM52.0895 46.628C49.0741 49.0729 45.1991 50.4684 41.0106 50.4684C36.8231 50.4684 32.9471 49.0729 29.9327 46.628C28.8407 47.5034 28.2105 48.635 28.2105 49.8455C28.2105 52.8128 33.875 55.2162 41.0192 55.2162C48.1633 55.2162 53.8278 52.8118 53.8278 49.8455C53.8278 48.635 53.1976 47.5034 52.0895 46.628Z" fill="white"/>
</svg> 