<svg width="30" height="30" viewBox="0 0 96 96" fill="none" xmlns="http://www.w3.org/2000/svg">
  <path d="M19.8916 47.6788C33.1263 34.4788 54.8655 34.4788 68.1002 47.6788L70.5275 50.0927C71.5046 51.0661 71.5046 52.6312 70.5275 53.6046L65.9566 58.1563C65.468 58.643 64.6741 58.643 64.1855 58.1563L60.8329 54.819C51.7616 45.7764 36.23 45.7764 27.1588 54.819L23.6057 58.3599C23.1172 58.8466 22.3232 58.8466 21.8347 58.3599L17.2638 53.8082C16.2866 52.8348 16.2866 51.2697 17.2638 50.2963L19.8916 47.6788ZM78.0583 57.6061L82.0213 61.5543C82.9985 62.5278 82.9985 64.0929 82.0213 65.0661L63.1361 83.8783C62.1589 84.8517 60.5877 84.8517 59.6106 83.8783L46.7487 71.0566C46.5045 70.8132 46.11 70.8132 45.8657 71.0566L33.0039 83.8783C32.0267 84.8517 30.4554 84.8517 29.4783 83.8783L10.5789 65.0504C9.60171 64.0769 9.60171 62.5118 10.5789 61.5384L14.5419 57.5902C15.519 56.6167 17.0903 56.6167 18.0675 57.5902L30.9292 70.4118C31.1735 70.6552 31.568 70.6552 31.8123 70.4118L44.6742 57.5902C45.6514 56.6167 47.2227 56.6167 48.1998 57.5902L61.0617 70.4118C61.306 70.6552 61.7005 70.6552 61.9448 70.4118L74.8066 57.5902C75.7996 56.6167 77.3708 56.6167 78.348 57.5902L78.0583 57.6061Z" fill="white" />
</svg> 