<svg xmlns="http://www.w3.org/2000/svg" viewBox="0 0 32 32">
  <g fill="none">
    <circle cx="16" cy="16" r="16" fill="#8247E5"/>
    <path d="M21.092 13.09c-.487-.277-1.117-.277-1.632 0l-2.42 1.385-1.633.935-2.42 1.385c-.487.277-1.117.277-1.632 0l-1.905-1.108c-.487-.277-.812-.792-.812-1.357v-2.16c0-.565.298-1.08.812-1.357l1.878-1.08c.487-.277 1.117-.277 1.632 0l1.878 1.08c.487.277.812.792.812 1.357v1.385l1.633-.935v-1.385c0-.565-.298-1.08-.812-1.357l-3.51-2.043c-.487-.277-1.117-.277-1.632 0l-3.565 2.043c-.514.277-.812.792-.812 1.357v4.086c0 .565.298 1.08.812 1.357l3.565 2.043c.487.277 1.117.277 1.632 0l2.42-1.385 1.633-.935 2.42-1.385c.487-.277 1.117-.277 1.632 0l1.878 1.08c.487.277.812.792.812 1.357v2.16c0 .565-.298 1.08-.812 1.357l-1.878 1.08c-.487.277-1.117.277-1.632 0l-1.878-1.08c-.487-.277-.812-.792-.812-1.357v-1.385l-1.633.935v1.385c0 .565.298 1.08.812 1.357l3.565 2.043c.487.277 1.117.277 1.632 0l3.565-2.043c.487-.277.812-.792.812-1.357v-4.086c0-.565-.298-1.08-.812-1.357l-3.565-2.043z" fill="#FFF"/>
  </g>
</svg> 