<svg xmlns="http://www.w3.org/2000/svg" viewBox="0 0 32 32">
  <g fill="none">
    <circle cx="16" cy="16" r="16" fill="#000"/>
    <path d="M9.925 20.648l2.083 2.084a.37.37 0 00.262.109h12.506a.37.37 0 00.262-.63l-2.083-2.084a.37.37 0 00-.262-.109H10.187a.37.37 0 00-.262.63zm0-5.73l2.083 2.084a.37.37 0 00.262.109h12.506a.37.37 0 00.262-.63l-2.083-2.084a.37.37 0 00-.262-.109H10.187a.37.37 0 00-.262.63zm14.85-4.57a.37.37 0 00-.262-.109H10.187a.37.37 0 00-.262.63l2.083 2.084a.37.37 0 00.262.109h12.506a.37.37 0 00.262-.63z" fill="#00FFA3"/>
  </g>
</svg> 